<svg width="59" height="56" viewBox="0 0 59 56" fill="none" xmlns="http://www.w3.org/2000/svg">
<path d="M2.125 19.3335C2.125 18.3907 2.125 17.9193 2.41789 17.6264C2.71079 17.3335 3.18219 17.3335 4.125 17.3335H54.875C55.8178 17.3335 56.2892 17.3335 56.5821 17.6264C56.875 17.9193 56.875 18.3907 56.875 19.3335V30.5418C56.875 31.4846 56.875 31.956 56.5821 32.2489C56.2892 32.5418 55.8178 32.5418 54.875 32.5418H49.75C48.8072 32.5418 48.3358 32.5418 48.0429 32.8347C47.75 33.1276 47.75 33.599 47.75 34.5418V51.8335C47.75 52.7763 47.75 53.2477 47.4571 53.5406C47.1642 53.8335 46.6928 53.8335 45.75 53.8335H13.25C12.3072 53.8335 11.8358 53.8335 11.5429 53.5406C11.25 53.2477 11.25 52.7763 11.25 51.8335V34.5418C11.25 33.599 11.25 33.1276 10.9571 32.8347C10.6642 32.5418 10.1928 32.5418 9.25 32.5418H4.125C3.18219 32.5418 2.71079 32.5418 2.41789 32.2489C2.125 31.956 2.125 31.4846 2.125 30.5418V19.3335Z" stroke="#00E3FF" stroke-width="4"/>
<path d="M8.20801 32.5415H50.7913" stroke="#00E3FF" stroke-width="4" stroke-linecap="round"/>
<path d="M29.5 14.2915L29.5 53.8332" stroke="#00E3FF" stroke-width="4" stroke-linecap="round"/>
<path d="M29.4997 14.2917L23.7317 8.52368C22.5242 7.31616 21.0521 6.40636 19.432 5.86634L10.8405 3.00249C9.5454 2.5708 8.20801 3.53474 8.20801 4.89985V12.8501C8.20801 13.711 8.75887 14.4753 9.57555 14.7475L17.333 17.3333" stroke="#00E3FF" stroke-width="4" stroke-linecap="round"/>
<path d="M29.5003 14.2917L35.2683 8.52368C36.4758 7.31616 37.9479 6.40636 39.568 5.86634L48.1595 3.00249C49.4546 2.5708 50.792 3.53474 50.792 4.89985V12.8501C50.792 13.711 50.2411 14.4753 49.4244 14.7475L41.667 17.3333" stroke="#00E3FF" stroke-width="4" stroke-linecap="round"/>
</svg>
