<svg width="58" height="52" viewBox="0 0 58 52" fill="none" xmlns="http://www.w3.org/2000/svg">
<path fill-rule="evenodd" clip-rule="evenodd" d="M1.54518 1.37868C0.666504 2.25736 0.666504 3.67157 0.666504 6.5V45.5C0.666504 48.3284 0.666504 49.7426 1.54518 50.6213C2.42386 51.5 3.83808 51.5 6.66651 51.5H51.3332C54.1616 51.5 55.5758 51.5 56.4545 50.6213C57.3332 49.7426 57.3332 48.3284 57.3332 45.5V40.1667H39.8332C36.0619 40.1667 34.1763 40.1667 33.0047 38.9951C31.8332 37.8235 31.8332 35.9379 31.8332 32.1667V31.1667C31.8332 27.3954 31.8332 25.5098 33.0047 24.3382C34.1763 23.1667 36.0619 23.1667 39.8332 23.1667H57.3332V6.5C57.3332 3.67157 57.3332 2.25736 56.4545 1.37868C55.5758 0.5 54.1616 0.5 51.3332 0.5H6.6665C3.83808 0.5 2.42386 0.5 1.54518 1.37868ZM14.8332 13.6667C14.2809 13.6667 13.8332 14.1144 13.8332 14.6667C13.8332 15.219 14.2809 15.6667 14.8332 15.6667H23.3332C23.8855 15.6667 24.3332 15.219 24.3332 14.6667C24.3332 14.1144 23.8855 13.6667 23.3332 13.6667H14.8332Z" fill="#5CF87E"/>
<path d="M43.1668 31.6665H40.3335" stroke="#5CF87E" stroke-width="2" stroke-linecap="round"/>
</svg>
